<svg width="180" height="64" version="1.1" viewBox="0 0 47.625 16.933" xmlns="http://www.w3.org/2000/svg">
 <g transform="translate(-6.8325)">
  <path d="m50.783 6.773a8.0905 8.0988 0 0 0-0.38874-0.12265c0.02194-0.089719 0.04213-0.17837 0.06004-0.26546 0.2943-1.43 0.10191-2.5821-0.55523-2.9614-0.63006-0.36364-1.6605 0.015538-2.7011 0.92213a8.0782 8.0865 0 0 0-0.30075 0.27618 7.3534 7.3609 0 0 0-0.20008-0.18498c-1.0907-0.96936-2.1838-1.3779-2.8403-0.99751-0.62949 0.36477-0.81589 1.4478-0.55094 2.8031a8.0661 8.0744 0 0 0 0.08927 0.40048c-0.15474 0.044009-0.30406 0.090862-0.44696 0.14073-1.2787 0.44628-2.0953 1.1457-2.0953 1.8711 0 0.74924 0.87665 1.5007 2.2085 1.9564a6.8653 6.8723 0 0 0 0.32652 0.10225 7.9007 7.9088 0 0 0-0.09483 0.43155c-0.25259 1.3318-0.05535 2.3892 0.57245 2.7517 0.64841 0.37431 1.7367-0.01047 2.7964-0.93767a6.8675 6.8745 0 0 0 0.25202-0.23249 7.9289 7.937 0 0 0 0.32647 0.29818c1.0265 0.88416 2.0402 1.2412 2.6674 0.87774 0.6478-0.3754 0.85835-1.5114 0.585-2.8934a6.8415 6.8485 0 0 0-0.07241-0.32312c0.07643-0.02268 0.15144-0.046 0.22456-0.07028 1.3846-0.45918 2.2854-1.2016 2.2854-1.9608 0-0.72808-0.84297-1.4322-2.1474-1.8817zm-0.30028 3.3523c-0.06605 0.02187-0.13379 0.04297-0.20286 0.06353-0.15285-0.4844-0.35912-0.99944-0.61156-1.5316 0.24089-0.51948 0.43922-1.028 0.58778-1.5092 0.12357 0.035801 0.24344 0.073534 0.35902 0.11334 1.1176 0.38517 1.7994 0.95458 1.7994 1.3934 0 0.46735-0.73626 1.0741-1.9317 1.4706zm-0.49602 0.9839c0.12087 0.6111 0.13809 1.1636 0.05803 1.5956-0.0719 0.38815-0.21654 0.6469-0.39544 0.75056-0.38058 0.22054-1.1945-0.06612-2.0724-0.8223a7.394 7.4015 0 0 1-0.30369-0.27722c0.34034-0.37256 0.68044-0.80567 1.0124-1.2867 0.58387-0.05185 1.1355-0.13667 1.6357-0.25242a6.3298 6.3363 0 0 1 0.06539 0.29247zm-5.0163 2.3081c-0.37186 0.13143-0.66804 0.13521-0.84707 0.0319-0.38096-0.21993-0.53933-1.069-0.32331-2.2079a7.4032 7.4108 0 0 1 0.08817-0.40137c0.4947 0.10957 1.0423 0.18833 1.6275 0.23584 0.33421 0.4707 0.68412 0.90334 1.0368 1.2822a6.3533 6.3598 0 0 1-0.23009 0.21214c-0.46861 0.41001-0.93817 0.70093-1.352 0.84723zm-1.7421-3.2949c-0.58892-0.20151-1.0753-0.46338-1.4086-0.74914-0.29958-0.25677-0.45078-0.51174-0.45078-0.71859 0-0.44024 0.65563-1.0018 1.7492-1.3834 0.13272-0.046283 0.2716-0.08996 0.41573-0.13096 0.15116 0.49209 0.3494 1.0066 0.58864 1.5269-0.24235 0.52798-0.44342 1.0507-0.59604 1.5486a6.3557 6.3622 0 0 1-0.29807-0.09345zm0.58396-3.9793c-0.22697-1.1611-0.07624-2.037 0.30312-2.2569 0.40403-0.23415 1.2975 0.099692 2.2392 0.93673a6.8086 6.8155 0 0 1 0.18121 0.16742c-0.35091 0.37719-0.69761 0.80662-1.0288 1.2745-0.56802 0.052698-1.1117 0.13733-1.6116 0.25072a7.5645 7.5723 0 0 1-0.08303-0.37247zm5.2097 1.2878a16.408 16.425 0 0 0-0.36728-0.60463c0.38535 0.048785 0.75456 0.11353 1.1013 0.19268-0.10408 0.33398-0.23381 0.68312-0.38653 1.0411a17.982 18 0 0 0-0.34746-0.62914zm-2.1245-2.0714c0.23796 0.25809 0.4763 0.54621 0.71073 0.85885a15.193 15.209 0 0 0-1.4275-2.833e-4c0.23466-0.30976 0.47503-0.5975 0.71672-0.85857zm-2.1381 2.0749a15.246 15.262 0 0 0-0.34095 0.62518c-0.15021-0.3567-0.27877-0.70744-0.38374-1.0461 0.34458-0.077168 0.71205-0.14026 1.0949-0.18815a15.169 15.184 0 0 0-0.37025 0.60907zm0.38124 3.0863c-0.39558-0.04421-0.76857-0.10403-1.1131-0.17913 0.10662-0.34475 0.23801-0.70296 0.39148-1.0673a15.153 15.168 0 0 0 0.34237 0.62555c0.12239 0.21157 0.2491 0.4188 0.37921 0.62088zm1.7711 1.4654c-0.24457-0.26409-0.48848-0.55627-0.72668-0.87052 0.23126 0.0091 0.46701 0.01363 0.70662 0.01363 0.24617 0 0.48952-0.0055 0.72904-0.01621-0.23518 0.31991-0.47262 0.61252-0.70898 0.87302zm2.4626-2.7305c0.16144 0.36836 0.2975 0.72468 0.40554 1.0635-0.35015 0.08-0.72823 0.14442-1.1266 0.19225a18.042 18.06 0 0 0 0.37077-0.61516 16.39 16.406 0 0 0 0.35029-0.64062zm-0.79721 0.38258a16.916 16.933 0 0 1-0.57939 0.93578 15.54 15.556 0 0 1-1.106 0.03886c-0.37586 0-0.74144-0.01171-1.0935-0.03457a14.635 14.65 0 0 1-0.59033-0.93725h4.7e-5a14.503 14.518 0 0 1-0.51532-0.97413 14.638 14.653 0 0 1 0.51376-0.9746l-4.6e-5 4.8e-5a14.499 14.513 0 0 1 0.58562-0.93322c0.35916-0.0272 0.72748-0.041367 1.0997-0.041367h4.5e-5c0.37393 0 0.74272 0.014304 1.1018 0.041697a15.538 15.554 0 0 1 0.58194 0.93011 16.913 16.93 0 0 1 0.52065 0.97002 15.544 15.56 0 0 1-0.51895 0.97862zm1.0643-5.7674c0.4044 0.23348 0.5617 1.175 0.3076 2.4097-0.01622 0.078767-0.03444 0.15901-0.05424 0.24038-0.50113-0.11579-1.0452-0.20189-1.6149-0.2554-0.33185-0.47306-0.67572-0.90315-1.0209-1.2755a7.5856 7.5934 0 0 1 0.27778-0.25502c0.89166-0.77672 1.725-1.0834 2.1047-0.86423zm-2.7497 3.7042c0.59562 0 1.0785 0.48336 1.0785 1.0796 0 0.59623-0.48286 1.0796-1.0785 1.0796-0.59562 0-1.0785-0.48336-1.0785-1.0796 0-0.59622 0.48286-1.0796 1.0785-1.0796z" fill="#00d8ff" stroke-width=".047202"/>
  <g fill="#f9f9f9" stroke-width="1.0001">
   <path d="m35.895 9.3364v4.6168h1.1844v-1.6929h0.5488l1.2588 1.6929h1.4542l-1.541-1.9782c0.29352-0.14263 0.51883-0.32143 0.67593-0.5364 0.15916-0.21497 0.23874-0.49299 0.23874-0.83406 0-0.24805-0.05168-0.45372-0.15503-0.61702-0.10129-0.16536-0.23875-0.29972-0.41238-0.40308-0.17157-0.10335-0.35553-0.17053-0.5519-0.20154-0.19637-0.031006-0.43098-0.046509-0.70383-0.046509zm1.1844 0.84956h0.43098c0.14263 0 0.26768 0.0041 0.37517 0.0124 0.10749 0.0062 0.20154 0.02584 0.28215 0.05891 0.11576 0.04754 0.1974 0.11266 0.24495 0.19534 0.04754 0.08268 0.07131 0.1819 0.07131 0.29766 0 0.13022-0.01964 0.23461-0.05891 0.31316-0.03721 0.07648-0.09715 0.14676-0.17983 0.21084-0.08682 0.06615-0.1943 0.10852-0.32246 0.12712-0.12816 0.0186-0.28732 0.02791-0.47749 0.02791h-0.36587z"/>
   <path d="m31.558 9.3364v4.6168h3.3393v-0.89297h-2.1549v-1.141h1.9999v-0.89297h-1.9999v-0.79685h2.1549v-0.89297z"/>
   <path d="m26.767 9.3364v0.89297h1.4418v3.7238h1.1906v-3.7238h1.4418v-0.89297z"/>
   <path d="m22.262 9.3364v4.6168h1.1844v-1.6929h0.5488l1.2588 1.6929h1.4542l-1.541-1.9782c0.29352-0.14263 0.51883-0.32143 0.67593-0.5364 0.15916-0.21497 0.23874-0.49299 0.23874-0.83406 0-0.24805-0.05168-0.45372-0.15503-0.61702-0.10129-0.16536-0.23875-0.29972-0.41238-0.40308-0.17157-0.10335-0.35553-0.17053-0.5519-0.20154-0.19637-0.031006-0.43098-0.046509-0.70383-0.046509zm1.1844 0.84956h0.43098c0.14263 0 0.26768 0.0041 0.37517 0.0124 0.10749 0.0062 0.20154 0.02584 0.28215 0.05891 0.11576 0.04754 0.1974 0.11266 0.24495 0.19534 0.04754 0.08268 0.07131 0.1819 0.07131 0.29766 0 0.13022-0.01964 0.23461-0.05891 0.31316-0.03721 0.07648-0.09715 0.14676-0.17983 0.21084-0.08682 0.06615-0.1943 0.10852-0.32246 0.12712-0.12816 0.0186-0.28732 0.02791-0.47749 0.02791h-0.36587z"/>
   <path d="m18.523 9.3364-1.7053 4.6168h1.1999l0.31936-0.93328h1.7115l0.31936 0.93328h1.2309l-1.7053-4.6168zm0.66973 1.1813 0.56741 1.6557h-1.1348z"/>
   <path d="m12.542 9.3364v0.89297h1.4418v3.7238h1.1906v-3.7238h1.4418v-0.89297z"/>
   <path d="m10.334 9.2527c-0.60565 0-1.1017 0.13643-1.4883 0.40928-0.38447 0.27078-0.57671 0.62115-0.57671 1.0511 0 0.32039 0.08475 0.58911 0.25425 0.80615 0.17157 0.21497 0.45165 0.38551 0.84026 0.5116 0.1695 0.05581 0.35037 0.10232 0.5426 0.13953 0.1943 0.03514 0.37827 0.07338 0.5519 0.11472 0.16536 0.03927 0.29042 0.09612 0.37517 0.17053 0.08682 0.07235 0.13022 0.15916 0.13022 0.26045 0 0.10955-0.02997 0.19224-0.08992 0.24805-0.05788 0.05581-0.13229 0.10232-0.22324 0.13953-0.07441 0.02894-0.17053 0.04961-0.28836 0.06201-0.11782 0.0124-0.21291 0.0186-0.28525 0.0186-0.28112 0-0.57464-0.05271-0.88057-0.15813-0.30385-0.10542-0.57877-0.25631-0.82475-0.45268h-0.13022v1.1069c0.24805 0.10335 0.51366 0.18914 0.79685 0.25735 0.28525 0.06615 0.61908 0.09922 1.0015 0.09922 0.66146 0 1.1844-0.14159 1.5689-0.42478 0.38654-0.28525 0.57981-0.65526 0.57981-1.11 0-0.31833-0.08475-0.57671-0.25425-0.77515-0.16743-0.2005-0.42788-0.35864-0.78135-0.47439-0.17983-0.05788-0.3483-0.10335-0.5054-0.13643-0.15503-0.03307-0.31729-0.06718-0.48679-0.10232-0.25838-0.05374-0.43408-0.11266-0.5271-0.17673-0.093018-0.06615-0.13953-0.1602-0.13953-0.28215 0-0.08061 0.028939-0.15193 0.086816-0.21394 0.057878-0.06408 0.12712-0.11162 0.20774-0.14263 0.09095-0.03721 0.185-0.06201 0.28215-0.07441 0.09922-0.01447 0.19844-0.0217 0.29766-0.0217 0.28112 0 0.55604 0.05064 0.82476 0.15193 0.27078 0.09922 0.4992 0.22324 0.68523 0.37207h0.12712v-1.0635c-0.21704-0.088883-0.47439-0.16226-0.77205-0.22014-0.29559-0.059945-0.59531-0.089917-0.89917-0.089917z"/>
   <path d="m26.86 2.9864v0.89297h1.4418v3.7238h1.1906v-3.7238h1.4418v-0.89297z"/>
   <path d="m24.817 2.8965c-0.3514 0-0.67593 0.055811-0.97358 0.16743-0.29559 0.11162-0.54364 0.26975-0.74414 0.47439-0.20877 0.21291-0.36794 0.46819-0.47749 0.76584-0.10955 0.29766-0.16433 0.62942-0.16433 0.99529 0 0.39274 0.05684 0.73897 0.17053 1.0387 0.11576 0.29972 0.27802 0.54984 0.48679 0.75034 0.20877 0.2005 0.45785 0.3514 0.74724 0.45269 0.29146 0.10129 0.60875 0.15193 0.95188 0.15193 0.23151 0 0.41341-0.011369 0.5457-0.034106 0.13229-0.022738 0.27389-0.055811 0.42478-0.099219 0.11576-0.033073 0.22634-0.072347 0.33176-0.11782 0.10542-0.045475 0.21601-0.094051 0.33176-0.14573v-1.1038h-0.12402c-0.05581 0.049609-0.12712 0.10852-0.21394 0.17673-0.08682 0.068213-0.18087 0.13229-0.28215 0.19224-0.11989 0.074414-0.25115 0.13333-0.39378 0.17673-0.14056 0.043408-0.28319 0.065112-0.42788 0.065112-0.1509 0-0.30386-0.023771-0.45889-0.071314-0.15503-0.049608-0.29559-0.13126-0.42168-0.24495-0.12402-0.11162-0.22738-0.26458-0.31006-0.45889-0.080616-0.1943-0.12092-0.43615-0.12092-0.72554 0-0.27699 0.03721-0.51263 0.11162-0.70693 0.07648-0.1943 0.1757-0.35037 0.29766-0.46819 0.12816-0.12196 0.26768-0.20877 0.41858-0.26045 0.1509-0.053743 0.31006-0.080615 0.47749-0.080615 0.1509 0 0.29249 0.022738 0.42478 0.068213 0.13229 0.045475 0.25528 0.10129 0.36897 0.16743 0.11162 0.066146 0.21084 0.13333 0.29766 0.20154 0.08888 0.068213 0.16226 0.12712 0.22014 0.17673h0.13643v-1.1193c-0.084749-0.041341-0.18397-0.085783-0.29766-0.13333-0.11162-0.049609-0.23668-0.094051-0.37517-0.13333-0.13229-0.03514-0.27699-0.063045-0.43408-0.083716-0.15503-0.022738-0.3297-0.034106-0.524-0.034106z"/>
   <path d="m18.988 2.9864-1.7053 4.6168h1.1999l0.31936-0.93328h1.7115l0.31936 0.93328h1.2309l-1.7053-4.6168zm0.66973 1.1813 0.56741 1.6557h-1.1348z"/>
   <path d="m13.459 2.9864v4.6168h3.3393v-0.89297h-2.1549v-1.141h1.9999v-0.89297h-1.9999v-0.79685h2.1549v-0.89297z"/>
   <path d="m8.4923 2.9864v4.6168h1.1844v-1.6929h0.5488l1.2588 1.6929h1.4542l-1.541-1.9782c0.29352-0.14263 0.51883-0.32143 0.67593-0.5364 0.15916-0.21497 0.23874-0.49299 0.23874-0.83406 0-0.24805-0.051677-0.45372-0.15503-0.61702-0.10129-0.16536-0.23875-0.29972-0.41238-0.40308-0.17157-0.10335-0.35553-0.17053-0.5519-0.20154-0.19637-0.031006-0.43098-0.046509-0.70383-0.046509zm1.1844 0.84956h0.43098c0.14263 0 0.26768 0.00413 0.37517 0.012402 0.10749 0.0062 0.20154 0.025838 0.28215 0.058911 0.11576 0.047542 0.1974 0.11265 0.24495 0.19534 0.04754 0.082682 0.07131 0.1819 0.07131 0.29766 0 0.13022-0.01964 0.23461-0.05891 0.31316-0.03721 0.076481-0.09715 0.14676-0.17983 0.21084-0.08682 0.066146-0.1943 0.10852-0.32246 0.12712-0.12816 0.018604-0.28732 0.027905-0.47749 0.027905h-0.36587z"/>
  </g>
 </g>
</svg>
