<!-- Created with Inkscape (http://www.inkscape.org/) -->
<svg width="180" height="64" version="1.1" viewBox="0 0 47.625 16.933" xmlns="http://www.w3.org/2000/svg">
 <path d="m44.883 6.5746a8.0905 8.0988 0 0 0-0.38874-0.12265c0.02194-0.089719 0.04213-0.17837 0.06004-0.26546 0.2943-1.43 0.10191-2.5821-0.55523-2.9614-0.63006-0.36364-1.6605 0.015538-2.7011 0.92213a8.0782 8.0865 0 0 0-0.30075 0.27618 7.3534 7.3609 0 0 0-0.20008-0.18498c-1.0907-0.96936-2.1838-1.3779-2.8403-0.99751-0.62949 0.36477-0.81589 1.4478-0.55094 2.8031a8.0661 8.0744 0 0 0 0.08927 0.40048c-0.15474 0.044009-0.30406 0.090862-0.44696 0.14073-1.2787 0.44628-2.0953 1.1457-2.0953 1.8711 0 0.74924 0.87665 1.5007 2.2085 1.9564a6.8653 6.8723 0 0 0 0.32652 0.10225 7.9007 7.9088 0 0 0-0.09483 0.43155c-0.25259 1.3318-0.05535 2.3892 0.57245 2.7517 0.64841 0.37431 1.7367-0.01047 2.7964-0.93767a6.8675 6.8745 0 0 0 0.25202-0.23249 7.9289 7.937 0 0 0 0.32647 0.29818c1.0265 0.88416 2.0402 1.2412 2.6674 0.87774 0.6478-0.3754 0.85835-1.5114 0.585-2.8934a6.8415 6.8485 0 0 0-0.07241-0.32312c0.07643-0.02268 0.15144-0.046 0.22456-0.07028 1.3846-0.45918 2.2854-1.2016 2.2854-1.9608 0-0.72808-0.84297-1.4322-2.1474-1.8817zm-0.30028 3.3523c-0.06605 0.02187-0.13379 0.04297-0.20286 0.06353-0.15285-0.4844-0.35912-0.99944-0.61156-1.5316 0.24089-0.51948 0.43922-1.028 0.58778-1.5092 0.12357 0.035801 0.24344 0.073534 0.35902 0.11334 1.1176 0.38517 1.7994 0.95458 1.7994 1.3934 0 0.46735-0.73626 1.0741-1.9317 1.4706zm-0.49602 0.9839c0.12087 0.6111 0.13809 1.1636 0.05803 1.5956-0.0719 0.38815-0.21654 0.6469-0.39544 0.75056-0.38058 0.22054-1.1945-0.06612-2.0724-0.8223a7.394 7.4015 0 0 1-0.30369-0.27722c0.34034-0.37256 0.68044-0.80567 1.0124-1.2867 0.58387-0.05185 1.1355-0.13667 1.6357-0.25242a6.3298 6.3363 0 0 1 0.06539 0.29247zm-5.0163 2.3081c-0.37186 0.13143-0.66804 0.13521-0.84707 0.0319-0.38096-0.21993-0.53933-1.069-0.32331-2.2079a7.4032 7.4108 0 0 1 0.08817-0.40137c0.4947 0.10957 1.0423 0.18833 1.6275 0.23584 0.33421 0.4707 0.68412 0.90334 1.0368 1.2822a6.3533 6.3598 0 0 1-0.23009 0.21214c-0.46861 0.41001-0.93817 0.70093-1.352 0.84723zm-1.7421-3.2949c-0.58892-0.20151-1.0753-0.46338-1.4086-0.74914-0.29958-0.25677-0.45078-0.51174-0.45078-0.71859 0-0.44024 0.65563-1.0018 1.7492-1.3834 0.13272-0.046283 0.2716-0.08996 0.41573-0.13096 0.15116 0.49209 0.3494 1.0066 0.58864 1.5269-0.24235 0.52798-0.44342 1.0507-0.59604 1.5486a6.3557 6.3622 0 0 1-0.29807-0.09345zm0.58396-3.9793c-0.22697-1.1611-0.07624-2.037 0.30312-2.2569 0.40403-0.23415 1.2975 0.099692 2.2392 0.93673a6.8086 6.8155 0 0 1 0.18121 0.16742c-0.35091 0.37719-0.69761 0.80662-1.0288 1.2745-0.56802 0.052698-1.1117 0.13733-1.6116 0.25072a7.5645 7.5723 0 0 1-0.08303-0.37247zm5.2097 1.2878a16.408 16.425 0 0 0-0.36728-0.60463c0.38535 0.048785 0.75456 0.11353 1.1013 0.19268-0.10408 0.33398-0.23381 0.68312-0.38653 1.0411a17.982 18 0 0 0-0.34746-0.62914zm-2.1245-2.0714c0.23796 0.25809 0.4763 0.54621 0.71073 0.85885a15.193 15.209 0 0 0-1.4275-2.833e-4c0.23466-0.30976 0.47503-0.5975 0.71672-0.85857zm-2.1381 2.0749a15.246 15.262 0 0 0-0.34095 0.62518c-0.15021-0.3567-0.27877-0.70744-0.38374-1.0461 0.34458-0.077168 0.71205-0.14026 1.0949-0.18815a15.169 15.184 0 0 0-0.37025 0.60907zm0.38124 3.0863c-0.39558-0.04421-0.76857-0.10403-1.1131-0.17913 0.10662-0.34475 0.23801-0.70296 0.39148-1.0673a15.153 15.168 0 0 0 0.34237 0.62555c0.12239 0.21157 0.2491 0.4188 0.37921 0.62088zm1.7711 1.4654c-0.24457-0.26409-0.48848-0.55627-0.72668-0.87052 0.23126 0.0091 0.46701 0.01363 0.70662 0.01363 0.24617 0 0.48952-0.0055 0.72904-0.01621-0.23518 0.31991-0.47262 0.61252-0.70898 0.87302zm2.4626-2.7305c0.16144 0.36836 0.2975 0.72468 0.40554 1.0635-0.35015 0.08-0.72823 0.14442-1.1266 0.19225a18.042 18.06 0 0 0 0.37077-0.61516 16.39 16.406 0 0 0 0.35029-0.64062zm-0.79721 0.38258a16.916 16.933 0 0 1-0.57939 0.93578 15.54 15.556 0 0 1-1.106 0.03886c-0.37586 0-0.74144-0.01171-1.0935-0.03457a14.635 14.65 0 0 1-0.59033-0.93725h4.7e-5a14.503 14.518 0 0 1-0.51532-0.97413 14.638 14.653 0 0 1 0.51376-0.9746l-4.6e-5 4.8e-5a14.499 14.513 0 0 1 0.58562-0.93322c0.35916-0.0272 0.72748-0.041367 1.0997-0.041367h4.5e-5c0.37393 0 0.74272 0.014304 1.1018 0.041697a15.538 15.554 0 0 1 0.58194 0.93011 16.913 16.93 0 0 1 0.52065 0.97002 15.544 15.56 0 0 1-0.51895 0.97862zm1.0643-5.7674c0.4044 0.23348 0.5617 1.175 0.3076 2.4097-0.01622 0.078767-0.03444 0.15901-0.05424 0.24038-0.50113-0.11579-1.0452-0.20189-1.6149-0.2554-0.33185-0.47306-0.67572-0.90315-1.0209-1.2755a7.5856 7.5934 0 0 1 0.27778-0.25502c0.89166-0.77672 1.725-1.0834 2.1047-0.86423zm-2.7497 3.7042c0.59562 0 1.0785 0.48336 1.0785 1.0796 0 0.59623-0.48286 1.0796-1.0785 1.0796-0.59562 0-1.0785-0.48336-1.0785-1.0796 0-0.59622 0.48286-1.0796 1.0785-1.0796z" fill="#00d8ff" stroke-width=".047202"/>
 <g fill="#f9f9f9" stroke-width=".26461">
  <path d="m26.257 5.4439 1.8795 2.9295-2.0066 3.1156h1.372l1.4051-2.2862 1.4056 2.2862h1.4645l-2.0402-3.0479 1.8965-2.9972h-1.3803l-1.2785 2.1761-1.3038-2.1761z"/>
  <path d="m21.398 5.4439v1.0666h1.6423v4.9785h1.2785v-4.9785h1.6428v-1.0666z"/>
  <path d="m19.162 5.3592c-0.6096 0-1.1259 0.13262-1.5493 0.39791-0.41769 0.26529-0.7364 0.63222-0.95653 1.1007-0.22013 0.46849-0.33021 1.0074-0.33021 1.617 0 0.62089 0.09593 1.1655 0.28784 1.634 0.19191 0.46284 0.48808 0.82453 0.88884 1.0842 0.4064 0.254 0.9201 0.38086 1.541 0.38086 0.32173 0 0.61214-0.02568 0.87178-0.07648 0.25964-0.0508 0.52226-0.12943 0.78755-0.23668v-1.0754c-0.28787 0.1016-0.55573 0.18075-0.80408 0.2372-0.24271 0.05644-0.48855 0.08475-0.73691 0.08475-0.53058 0-0.91691-0.17508-1.1596-0.52503-0.23707-0.3556-0.35553-0.85515-0.35553-1.4986 0-0.63782 0.12948-1.1405 0.38912-1.5074 0.25964-0.36689 0.63496-0.55035 1.126-0.55035 0.22013 0 0.44343 0.039833 0.66921 0.11886 0.23142 0.079022 0.45997 0.17232 0.68575 0.27957l0.41496-1.0418c-0.27658-0.12982-0.5675-0.23151-0.8723-0.30489-0.29916-0.079022-0.59846-0.11834-0.89762-0.11834z"/>
  <path d="m12.296 5.4186-2.1337 6.0704h1.3803l0.44028-1.4392h2.2014l0.43977 1.4392h1.3803l-2.142-6.0704zm0.78755 0.93948c0.02822 0.11289 0.06491 0.24551 0.11007 0.39791 0.04516 0.1524 0.09024 0.30231 0.13539 0.44907 0.04516 0.14676 0.08185 0.26785 0.11007 0.3638l0.44028 1.4056h-1.5751l0.43202-1.4056c0.02258-0.062089 0.05351-0.1664 0.09302-0.31316 0.04516-0.1524 0.09024-0.31018 0.13539-0.47387 0.0508-0.16933 0.09063-0.31086 0.11886-0.42375z"/>
  <path d="m6.1831 5.4439v6.0451h3.4794v-1.0583h-2.2009v-1.558h2.049v-1.0495h-2.049v-1.3291h2.2009v-1.0501z"/>
  <path d="m0.5948 5.4439v6.0451h1.2785v-2.3198h0.68575l1.4397 2.3198h1.4221l-1.7782-2.6329c0.19756-0.090311 0.38102-0.20615 0.55035-0.34727 0.17498-0.14676 0.31336-0.32183 0.41496-0.52503 0.10724-0.20884 0.16071-0.45154 0.16071-0.72812 0-0.6096-0.1971-1.0641-0.59221-1.3632-0.38947-0.29916-0.99647-0.44855-1.8206-0.44855zm1.2785 1.0501h0.38964c0.41769 0 0.72224 0.061857 0.91416 0.18604 0.19756 0.11853 0.29662 0.32192 0.29662 0.60978 0 0.27658-0.093303 0.48521-0.27957 0.62632-0.18062 0.14111-0.48255 0.21187-0.90589 0.21187h-0.41496z"/>
 </g>
</svg>
